HIERARCHY
ROOT root
{
	OFFSET 0.000000 0.000000 0.000000
	CHANNELS 6 Xposition Yposition Zposition Zrotation Yrotation Xrotation
	JOINT lhip
	{
		OFFSET 0.058581 -0.082280 -0.017664
		CHANNELS 3 Zrotation Yrotation Xrotation
		JOINT lknee
		{
			OFFSET 0.043451 -0.386469 0.008037
			CHANNELS 3 Zrotation Yrotation Xrotation
			JOINT lankle
			{
				OFFSET -0.014790 -0.426874 -0.037428
				CHANNELS 3 Zrotation Yrotation Xrotation
				JOINT ltoe
				{
					OFFSET 0.041054 -0.060286 0.122042
					CHANNELS 3 Zrotation Yrotation Xrotation
					End Site
					{
						OFFSET 0.000000 0.000000 0.000000
					}
				}
			}
		}
	}
	JOINT rhip
	{
		OFFSET -0.060310 -0.090513 -0.013543
		CHANNELS 3 Zrotation Yrotation Xrotation
		JOINT rknee
		{
			OFFSET -0.043257 -0.383688 -0.004843
			CHANNELS 3 Zrotation Yrotation Xrotation
			JOINT rankle
			{
				OFFSET 0.019056 -0.420046 -0.034562
				CHANNELS 3 Zrotation Yrotation Xrotation
				JOINT rtoe
				{
					OFFSET -0.034840 -0.062106 0.130323
					CHANNELS 3 Zrotation Yrotation Xrotation
					End Site
					{
						OFFSET 0.000000 0.000000 0.000000
					}
				}
			}
		}
	}
	JOINT lowerback
	{
		OFFSET 0.004439 0.124404 -0.038385
		CHANNELS 3 Zrotation Yrotation Xrotation
		JOINT upperback
		{
			OFFSET 0.004488 0.137956 0.026820
			CHANNELS 3 Zrotation Yrotation Xrotation
			JOINT chest
			{
				OFFSET -0.002265 0.056032 0.002855
				CHANNELS 3 Zrotation Yrotation Xrotation
				JOINT lowerneck
				{
					OFFSET -0.013390 0.211636 -0.033468
					CHANNELS 3 Zrotation Yrotation Xrotation
					JOINT upperneck
					{
						OFFSET 0.010113 0.088937 0.050410
						CHANNELS 3 Zrotation Yrotation Xrotation
						End Site
						{
							OFFSET 0.000000 0.000000 0.000000
						}
					}
				}
				JOINT lclavicle
				{
					OFFSET 0.071702 0.114000 -0.018898
					CHANNELS 3 Zrotation Yrotation Xrotation
					JOINT lshoulder
					{
						OFFSET 0.122921 0.045205 -0.019046
						CHANNELS 3 Zrotation Yrotation Xrotation
						JOINT lelbow
						{
							OFFSET 0.255332 -0.015649 -0.022946
							CHANNELS 3 Zrotation Yrotation Xrotation
							JOINT lwrist
							{
								OFFSET 0.265709 0.012698 -0.007375
								CHANNELS 3 Zrotation Yrotation Xrotation
								End Site
								{
									OFFSET 0.000000 0.000000 0.000000
								}
							}
						}
					}
				}
				JOINT rclavicle
				{
					OFFSET -0.082954 0.112472 -0.023707
					CHANNELS 3 Zrotation Yrotation Xrotation
					JOINT rshoulder
					{
						OFFSET -0.113228 0.046853 -0.008472
						CHANNELS 3 Zrotation Yrotation Xrotation
						JOINT relbow
						{
							OFFSET -0.260127 -0.014369 -0.031269
							CHANNELS 3 Zrotation Yrotation Xrotation
							JOINT rwrist
							{
								OFFSET -0.269108 0.006794 -0.006027
								CHANNELS 3 Zrotation Yrotation Xrotation
								End Site
								{
									OFFSET 0.000000 0.000000 0.000000
								}
							}
						}
					}
				}
			}
		}
	}
}
MOTION
Frames: 18
Frame Time: 0.033333
1.130009 0.166412 1.131872 -85.575953 3.805512 86.901792 1.637404 1.339246 8.832788 -2.768380 -13.885815 0.234837 5.355988 8.059033 -16.063223 0.000000 -0.000000 0.000000 4.368541 -1.747240 5.945210 4.223815 2.942304 4.701728 2.013901 -3.682793 -10.075400 0.000000 -0.000000 0.000000 -2.625687 0.260876 3.699181 2.099783 -3.978631 3.631765 1.637312 -2.373269 3.978053 4.162089 -2.125451 0.663823 2.615860 -5.640174 3.371733 -26.012366 5.025681 2.842298 -61.600971 -6.348989 7.161095 8.853034 -23.068390 3.913037 -3.720786 -0.789652 -9.490638 23.904968 -1.916854 0.330071 61.367200 3.278680 10.521708 -12.943251 23.819528 -3.329299 7.857855 -0.640930 -10.152454 
1.130704 0.165378 1.131831 -85.649758 3.849337 87.007853 1.731796 1.439759 8.618144 -3.014892 -13.868685 0.330801 5.335404 8.039131 -16.036278 0.000000 -0.000000 0.000000 4.289906 -1.655080 5.728706 4.368113 3.019567 4.772960 2.127329 -3.765322 -10.122790 0.000000 -0.000000 0.000000 -2.581491 0.235664 3.559797 2.080585 -3.957573 3.634500 1.540833 -2.432684 4.082733 4.525085 -2.286029 0.520538 2.589071 -5.890511 3.608213 -25.909414 5.163940 2.917126 -61.538795 -6.215496 7.234468 8.747055 -21.928622 4.308920 -4.113428 -0.844740 -9.404002 23.801047 -2.051597 0.299584 61.537114 3.253893 10.604545 -13.094372 22.890957 -3.434869 8.224096 -0.926370 -10.655175 
1.131431 0.164362 1.131968 -85.748378 3.876116 86.979428 1.735272 1.539715 8.622091 -3.072873 -13.914261 0.286089 5.389577 8.026596 -15.948542 0.000000 -0.000000 0.000000 4.245583 -1.493269 5.618215 4.394502 2.858198 4.883149 2.159655 -3.705875 -10.118406 0.000000 -0.000000 0.000000 -2.596373 0.165223 3.706723 2.067978 -3.925591 3.494179 1.564642 -2.447799 4.082809 4.481878 -2.118073 0.927518 2.558796 -5.580182 3.468570 -25.942970 5.287767 2.901532 -61.451471 -6.067053 7.024940 8.667994 -20.902522 4.446707 -4.566566 -0.917010 -9.028859 23.645388 -2.207633 0.380492 61.607806 3.148152 10.517840 -13.107660 22.322921 -3.352124 8.419041 -0.913976 -10.636705 
1.132986 0.163354 1.131945 -85.899491 3.973003 87.146481 1.783005 1.438765 8.339847 -3.148534 -13.797192 0.318100 5.334520 8.171576 -15.962908 0.000000 -0.000000 0.000000 4.324780 -1.055537 5.164789 4.436983 2.850692 5.163224 2.102531 -3.993342 -10.079748 0.000000 -0.000000 0.000000 -2.539678 0.094628 3.705951 2.101002 -3.833081 3.266927 1.516132 -2.518656 4.251559 4.667095 -2.161984 0.534253 2.430196 -5.761972 3.608918 -25.898708 5.536854 2.963308 -61.270050 -5.736292 7.005832 8.398708 -20.093034 4.848832 -5.126617 -1.139717 -9.024579 23.753264 -2.500092 0.229281 61.467223 3.084677 10.556329 -13.169054 21.718989 -3.250312 8.425577 -0.995974 -10.498274 
1.132547 0.163342 1.131855 -85.619969 4.098853 87.032727 2.056163 1.604750 8.521302 -3.227862 -14.050641 0.219997 5.171871 7.973633 -16.015605 0.000000 -0.000000 0.000000 4.454551 -1.367410 5.467349 4.418244 2.829179 4.904934 2.109067 -3.925846 -9.984888 0.000000 -0.000000 0.000000 -2.586116 -0.070325 3.689160 2.152148 -3.997178 3.414891 1.592446 -2.580155 4.167680 4.585800 -2.257362 1.181275 2.506658 -5.672303 3.548959 -25.762239 5.537274 3.155972 -61.482061 -5.646322 6.746863 8.604110 -19.327690 4.728457 -4.983858 -0.698702 -8.907623 23.623977 -2.577604 0.318247 61.606232 2.948513 10.357664 -13.172581 21.422814 -3.063722 8.477179 -1.007699 -10.347662 
1.133129 0.162823 1.131928 -85.637018 4.121556 86.991145 2.066609 1.751638 8.618881 -3.186629 -14.110527 0.070777 5.009235 7.865561 -15.907023 0.000000 -0.000000 0.000000 4.467823 -1.489794 5.377015 4.338704 2.959982 5.077470 2.121693 -3.971215 -10.034973 0.000000 -0.000000 0.000000 -2.683814 -0.067990 3.693133 2.161544 -4.012077 3.565905 1.627584 -2.633451 4.325688 4.627035 -1.861026 0.215880 2.406956 -5.685274 3.551020 -25.883548 5.597508 2.990609 -61.247656 -5.541612 6.693417 8.592015 -18.767580 4.570629 -4.824904 -0.663550 -8.638296 23.909294 -2.606734 0.071256 61.304525 2.948869 10.271161 -13.134148 20.770339 -3.390047 8.253717 -0.894043 -10.160872 
1.133969 0.162366 1.132024 -85.575898 4.187306 86.885711 2.121289 1.902049 8.692372 -3.159707 -14.351851 0.040572 5.059246 7.802304 -15.835420 0.000000 -0.000000 0.000000 4.462653 -1.760156 5.438174 4.323168 2.992194 5.002723 2.090614 -3.790711 -9.921065 0.000000 -0.000000 0.000000 -2.689362 -0.079230 3.908295 2.196441 -4.189305 3.536652 1.714046 -2.584293 4.160064 4.754280 -2.621842 1.394784 2.632929 -5.891164 3.348819 -25.945912 5.554029 3.169963 -61.150057 -5.478326 6.443479 8.589045 -18.222851 4.400223 -4.912334 -0.334038 -8.517254 23.653524 -2.584786 0.443016 61.517591 2.702654 10.032806 -13.240271 20.908995 -3.419745 8.649077 -1.177403 -10.400945 
1.135051 0.162173 1.132177 -85.710644 4.204063 86.869929 2.150766 1.946251 8.666266 -3.226450 -14.262641 0.000936 5.078694 7.804388 -15.872174 0.000000 -0.000000 0.000000 4.434867 -1.790688 5.330869 4.383176 3.020927 5.069254 2.059615 -3.752129 -9.892258 0.000000 -0.000000 0.000000 -2.754297 -0.017755 4.021531 2.180682 -4.132067 3.438714 1.710605 -2.617342 4.169304 4.848841 -2.554629 1.330007 2.704773 -5.853220 3.397638 -25.908977 5.626859 3.278630 -61.000741 -5.449659 6.390141 8.587249 -18.153758 4.260851 -4.968135 -0.249341 -8.580749 23.640418 -2.679651 0.464570 61.629837 2.557387 10.025147 -13.158842 20.751204 -3.361202 8.530601 -1.466854 -10.380990 
1.136086 0.161758 1.132679 -85.792863 4.275939 86.816763 2.147341 1.975556 8.718977 -3.166713 -14.312698 -0.075240 5.069644 7.855037 -15.811304 0.000000 -0.000000 0.000000 4.529468 -1.898066 5.264218 4.302600 3.210140 5.064564 2.167360 -3.756421 -9.857036 0.000000 -0.000000 0.000000 -2.783267 -0.061217 4.100427 2.168301 -4.065956 3.446368 1.733024 -2.528589 4.257084 4.709282 -2.092733 0.758679 2.591766 -5.671232 3.350096 -26.027839 5.673894 3.046090 -60.701381 -5.424276 6.380908 8.492106 -18.122830 4.303037 -4.778853 -0.299682 -8.132591 23.935677 -2.773174 0.353066 61.361810 2.566653 10.021395 -13.031047 20.541337 -3.386993 8.445773 -1.297615 -9.963935 
1.137017 0.161696 1.132957 -85.883363 4.303566 86.666069 2.156224 2.071735 8.906923 -3.107882 -14.412410 -0.224241 5.095705 7.864362 -15.770488 0.000000 -0.000000 0.000000 4.597133 -1.911589 5.265551 4.268362 3.270727 5.229411 2.195117 -3.748136 -10.002963 0.000000 -0.000000 0.000000 -2.912489 -0.035597 4.295128 2.157505 -3.991125 3.424616 1.736981 -2.497484 4.227489 4.849779 -2.065031 0.629858 2.627665 -5.720256 3.427739 -25.895437 5.717305 2.948935 -60.615693 -5.424297 6.405990 8.551546 -18.459273 4.063771 -4.513302 -0.634061 -8.471966 24.031675 -2.779939 0.363645 61.469294 2.480237 10.032109 -13.024545 20.334086 -3.639878 8.323142 -1.221097 -10.270010 
1.138295 0.161742 1.133009 -85.953792 4.257043 86.704613 1.978540 1.701620 8.786367 -3.057073 -14.203561 -0.188552 5.229253 8.151610 -15.794606 0.000000 -0.000000 0.000000 4.621130 -1.653316 5.027359 4.196133 3.209388 5.429094 2.167138 -3.892690 -9.953462 0.000000 -0.000000 0.000000 -3.040106 0.051446 4.363909 2.126025 -3.950744 3.246193 1.753651 -2.468677 4.277627 4.880688 -2.062381 0.850022 2.730776 -5.735333 3.557559 -25.782472 5.746046 2.967587 -60.642212 -5.623853 6.457715 8.640273 -18.842263 3.860086 -4.510520 -0.545142 -8.715299 24.044843 -2.772569 0.428763 61.622573 2.362426 10.251920 -13.080502 20.612735 -3.562668 8.332561 -1.343274 -10.261675 
1.139067 0.161748 1.133066 -85.846831 4.245232 86.445731 1.920209 1.661316 8.867966 -3.016341 -14.234649 0.083707 5.261381 8.114025 -15.961647 0.000000 -0.000000 0.000000 4.605282 -1.458552 5.287877 4.231939 2.961777 5.408461 2.159898 -3.997024 -10.002082 0.000000 -0.000000 0.000000 -3.069917 0.021217 4.762889 2.129322 -3.976390 3.191970 1.783870 -2.507855 4.100442 4.983419 -2.633641 1.403321 2.594335 -5.937081 3.833450 -25.754547 5.648234 3.126004 -60.819397 -5.809353 6.419817 8.823856 -19.115163 3.882323 -4.326161 -0.631973 -8.904551 23.974753 -2.714128 0.492415 61.677355 2.371208 10.153145 -13.059352 20.569457 -3.453350 8.219341 -1.021481 -9.995762 
1.140477 0.161757 1.133175 -85.687488 4.262647 86.579560 1.883379 1.541380 8.393888 -3.064858 -14.174000 0.486772 5.345537 8.155389 -16.023086 0.000000 -0.000000 0.000000 4.687670 -1.406659 4.956361 4.153263 2.886686 5.616732 2.181197 -4.102637 -10.031850 0.000000 -0.000000 0.000000 -3.004882 -0.017345 4.739186 2.108741 -3.939274 3.049407 1.690768 -2.597482 4.199549 4.990164 -2.496306 1.281291 2.608608 -5.885687 4.032050 -25.841973 5.627039 3.090663 -60.802192 -6.072608 6.513532 9.006753 -19.711948 3.538002 -3.998516 -0.626638 -8.940802 23.996280 -2.760077 0.366977 61.790226 2.391242 10.296682 -13.113489 20.726615 -3.561175 8.143741 -1.062427 -10.087569 
1.141226 0.161899 1.133127 -85.611407 4.292966 86.466582 1.870742 1.377864 8.344792 -3.064260 -14.196951 0.721804 5.484979 8.298558 -16.147203 0.000000 -0.000000 0.000000 4.804058 -1.363278 4.888920 4.070339 2.845370 5.867510 2.067416 -4.125861 -10.197281 0.000000 -0.000000 0.000000 -3.048755 0.022882 4.761629 2.168715 -3.971657 3.110184 1.741518 -2.572441 4.151702 4.974212 -2.969499 2.009149 2.658995 -6.039333 4.199379 -25.798823 5.458435 3.199447 -60.957533 -6.289611 6.577291 9.142240 -20.340993 3.238206 -3.958998 -0.576568 -9.471036 23.741545 -2.604915 0.516312 61.957659 2.355134 10.312257 -13.141429 21.179154 -3.561498 8.498635 -1.249780 -10.544219 
1.142612 0.161860 1.133232 -85.339391 4.262652 86.489398 1.718848 1.055955 7.903273 -3.092523 -14.297066 1.376096 5.564988 8.411015 -16.286192 0.000000 -0.000000 0.000000 4.759419 -1.322922 4.774687 4.130115 2.710806 5.875092 2.135341 -4.246626 -10.164020 0.000000 -0.000000 0.000000 -3.047576 0.018766 4.927512 2.135406 -4.008237 2.866578 1.709500 -2.628921 4.278319 4.914491 -2.767726 2.013648 2.598176 -5.970044 4.626755 -25.769294 5.318725 3.098688 -61.021797 -6.541093 6.826478 9.125391 -20.935981 3.347342 -3.940494 -0.606449 -9.485152 23.807643 -2.613741 0.414861 61.900330 2.445105 10.434482 -13.178626 21.353258 -3.602148 8.502262 -1.215878 -10.511829 
1.143318 0.161702 1.133376 -85.250383 4.203624 86.230034 1.542532 1.003493 7.881554 -3.054853 -14.371120 1.823264 5.535958 8.526738 -16.519358 0.000000 -0.000000 0.000000 4.728832 -1.260231 4.976437 4.037597 2.673605 5.989895 2.095207 -4.259555 -10.285705 0.000000 -0.000000 0.000000 -3.106804 0.064619 5.147440 2.179145 -4.034885 2.922919 1.679110 -2.694218 4.318673 5.114734 -3.192928 2.669836 2.574569 -6.335212 5.199426 -25.856472 5.301041 3.064889 -61.075121 -6.788822 7.027799 9.092502 -21.831362 3.404627 -4.017121 -0.512296 -9.499048 23.766864 -2.504829 0.406797 61.840578 2.576064 10.423109 -13.205960 21.643521 -3.778873 8.391464 -1.166717 -10.440491 
1.144441 0.161666 1.133600 -85.232986 4.231696 86.129303 1.369365 0.798995 7.468644 -2.950324 -14.261093 2.640406 5.618528 8.718970 -16.543336 0.000000 -0.000000 0.000000 4.714537 -1.418100 4.830315 4.067407 2.661370 6.339959 2.114661 -4.089385 -10.343051 0.000000 -0.000000 0.000000 -3.024199 0.124849 5.207912 2.207752 -4.054687 2.851759 1.602241 -2.661295 4.369987 5.109498 -3.690272 3.472928 2.409360 -6.703916 6.089675 -25.877216 5.155971 3.077132 -61.254511 -7.108506 7.227013 9.354038 -22.326483 3.404751 -4.024268 -0.367126 -9.283323 23.792804 -2.367733 0.426939 61.675196 2.809691 10.464719 -13.201954 21.845562 -3.858101 8.520780 -1.142718 -10.336354 
1.146229 0.161596 1.133687 -85.450540 4.157173 86.067142 1.071156 0.612375 6.960662 -2.899755 -14.114974 3.492281 5.743758 9.073793 -16.743099 0.000000 -0.000000 0.000000 4.654148 -0.952914 4.674307 4.057466 2.519012 6.524626 2.168750 -4.201743 -10.307959 0.000000 -0.000000 0.000000 -3.027031 0.236768 5.392550 2.268136 -3.932430 2.690670 1.477230 -2.687603 4.495274 5.182402 -4.070100 4.472986 2.202554 -7.097583 7.308000 -25.971690 5.255816 3.039626 -61.170150 -7.372603 7.545650 9.283698 -23.123802 3.605322 -4.204689 -0.495510 -9.111749 23.899250 -2.357841 0.266898 61.464724 3.056961 10.736041 -13.237484 22.080718 -4.015843 8.476470 -1.165290 -10.334417 
